<?xml version="1.0" encoding="utf-8"?>
<!-- Svg Vector Icons : http://www.onlinewebfonts.com/icon -->
<!DOCTYPE svg PUBLIC "-//W3C//DTD SVG 1.1//EN" "http://www.w3.org/Graphics/SVG/1.1/DTD/svg11.dtd">
<svg version="1.1" xmlns="http://www.w3.org/2000/svg" xmlns:xlink="http://www.w3.org/1999/xlink" x="0px" y="0px" viewBox="0 0 1000 1000" enable-background="new 0 0 1000 1000" xml:space="preserve">
	<metadata> Svg Vector Icons : http://www.onlinewebfonts.com/icon</metadata>
	<g>
		<path d="M491.5,10c-202.8,0-332.3,163.6-332.3,366.4s282.9,494.3,332.3,494.3s332.3-291.4,332.3-494.3S694.3,10,491.5,10L491.5,10z M491.5,487.2c-80.1,0-144.9-64.8-144.9-144.9c0-80.1,64.8-144.9,144.9-144.9c80.1,0,144.9,64.8,144.9,144.9C636.3,422.5,571.6,487.2,491.5,487.2z" />
		<path d="M235.8,708.8c-121,25.6-196,66.5-196,127.8C39.8,932.1,244.3,990,500,990c255.7,0,460.2-57.9,460.2-153.4c0-63.1-80.1-105.7-209.6-131.2c-18.7-3.4-35.8,8.5-39.2,27.3c-3.4,18.7,8.5,35.8,27.3,39.2c97.1,18.7,155.1,49.4,155.1,64.8c0,3.4-5.1,8.5-18.7,18.7c-18.7,11.9-46,23.9-81.8,34.1c-76.7,22.2-180.7,34.1-291.4,34.1c-110.8,0-216.5-11.9-291.4-34.1c-35.8-10.2-63.1-22.2-81.8-34.1C113.1,845.1,108,840,108,836.6c0-13.6,52.8-42.6,141.5-61.4c18.7-3.4,30.7-22.2,25.6-40.9C273.3,715.6,254.6,703.7,235.8,708.8L235.8,708.8z" />
	</g>
</svg>
